<?xml version="1.0" encoding="UTF-8" standalone="no"?>
<!-- Created with Inkscape (http://www.inkscape.org/) -->

<svg
   width="172.61815mm"
   height="60.779427mm"
   viewBox="0 0 172.61815 60.779427"
   version="1.1"
   id="svg5"
   sodipodi:docname="logo-as1881.svg"
   inkscape:version="1.2.2 (732a01da63, 2022-12-09)"
   xmlns:inkscape="http://www.inkscape.org/namespaces/inkscape"
   xmlns:sodipodi="http://sodipodi.sourceforge.net/DTD/sodipodi-0.dtd"
   xmlns="http://www.w3.org/2000/svg"
   xmlns:svg="http://www.w3.org/2000/svg">
  <sodipodi:namedview
     id="namedview7"
     pagecolor="#ffffff"
     bordercolor="#666666"
     borderopacity="1.0"
     inkscape:pageshadow="2"
     inkscape:pageopacity="0.0"
     inkscape:pagecheckerboard="0"
     inkscape:document-units="mm"
     showgrid="true"
     inkscape:zoom="1.127629"
     inkscape:cx="416.36035"
     inkscape:cy="151.20221"
     inkscape:window-width="1822"
     inkscape:window-height="1051"
     inkscape:window-x="-9"
     inkscape:window-y="-9"
     inkscape:window-maximized="1"
     inkscape:current-layer="layer1-1"
     fit-margin-top="0"
     fit-margin-left="0"
     fit-margin-right="0"
     fit-margin-bottom="0"
     showborder="true"
     inkscape:showpageshadow="false"
     showguides="false"
     borderlayer="false"
     inkscape:deskcolor="#d1d1d1" />
  <defs
     id="defs2" />
  <g
     inkscape:label="Calque 1"
     inkscape:groupmode="layer"
     id="layer1"
     transform="translate(-16.999988,-138.74206)">
    <g
       inkscape:label="Calque 1"
       id="layer1-1"
       transform="translate(0.07814781,46.943156)">
      <g
         id="g57092"
         transform="matrix(1.3249328,0,0,1.4727704,-51.788147,-42.695889)">
        <g
           id="g56812">
          <path
             style="fill:#3a4a95;fill-opacity:1;stroke:none;stroke-width:0.264583px;stroke-linecap:butt;stroke-linejoin:miter;stroke-opacity:1"
             d="m 86.823911,105.25093 c 9.235377,-3.59554 20.211419,-5.69267 35.819659,-4.19107 l -4.18574,1.69524 c -10.10616,-0.43478 -20.814201,0.86922 -31.633919,2.49583 z"
             id="path69089-3"
             sodipodi:nodetypes="cccc" />
          <path
             style="fill:#ff5d49;fill-opacity:1;stroke:none;stroke-width:0.264583px;stroke-linecap:butt;stroke-linejoin:miter;stroke-opacity:1"
             d="m 88.819138,91.7989 c 6.85651,4.0524 14.923282,6.4936 19.197632,22.62459 4.891,-3.32251 9.86799,-7.07494 15.07814,-11.99315 7.29498,9.27779 15.624,15.69747 23.81444,22.62371 -7.9743,-3.32593 -15.90682,-8.00754 -23.55928,-14.96907 -6.47158,5.49126 -12.79625,11.08622 -20.58248,15.64949 0.43954,-9.92565 -0.0547,-23.27027 -13.948452,-33.93557 z"
             id="path334-2"
             sodipodi:nodetypes="ccccccc" />
          <path
             style="fill:#ff5d49;fill-opacity:1;stroke:none;stroke-width:0.264583px;stroke-linecap:butt;stroke-linejoin:miter;stroke-opacity:1"
             d="m 52.544656,126.92519 c 43.288092,-2.6551 93.484924,-2.27355 128.499714,-0.99903 l -0.0226,0.75175 c -40.00365,-0.10103 -80.10328,-0.94655 -120.874938,1.85684 -1.844829,-1.50847 -4.891855,-0.96319 -7.637846,-0.93218 z"
             id="path2498-2"
             sodipodi:nodetypes="cccccc" />
          <path
             style="fill:#3a4a95;fill-opacity:1;stroke:none;stroke-width:0.264583px;stroke-linecap:butt;stroke-linejoin:miter;stroke-opacity:1"
             d="m 122.63761,101.05877 c -15.11155,6.30166 -34.725882,17.3868 -43.150469,30.94059 l -2.283336,-0.57828 c 16.580092,-25.3884 41.477085,-30.81101 45.433805,-30.36297 z"
             id="path1680-0"
             sodipodi:nodetypes="ccccc" />
        </g>
      </g>
    </g>
  </g>
</svg>
