<?xml version="1.0" encoding="UTF-8" standalone="no"?>
<svg
   width="229.403"
   height="99.851997"
   version="1.1"
   id="svg75"
   sodipodi:docname="nutriscore-e.svg"
   inkscape:version="1.2.2 (732a01da63, 2022-12-09)"
   xmlns:inkscape="http://www.inkscape.org/namespaces/inkscape"
   xmlns:sodipodi="http://sodipodi.sourceforge.net/DTD/sodipodi-0.dtd"
   xmlns="http://www.w3.org/2000/svg"
   xmlns:svg="http://www.w3.org/2000/svg">
  <sodipodi:namedview
     id="namedview77"
     pagecolor="#ffffff"
     bordercolor="#000000"
     borderopacity="0.25"
     inkscape:showpageshadow="2"
     inkscape:pageopacity="0.0"
     inkscape:pagecheckerboard="0"
     inkscape:deskcolor="#d1d1d1"
     showgrid="false"
     inkscape:zoom="2.2686343"
     inkscape:cx="177.41952"
     inkscape:cy="122.32029"
     inkscape:window-width="1822"
     inkscape:window-height="1051"
     inkscape:window-x="-9"
     inkscape:window-y="-9"
     inkscape:window-maximized="1"
     inkscape:current-layer="svg75" />
  <defs
     id="defs35">
    <clipPath
       id="f"
       clipPathUnits="userSpaceOnUse">
      <path
         d="m -532.144,-130.648 h 841.89 v 595.276 h -841.89 z"
         id="path2" />
    </clipPath>
    <clipPath
       id="a"
       clipPathUnits="userSpaceOnUse">
      <path
         d="m -576.406,-131.683 h 841.89 v 595.276 h -841.89 z"
         id="path5" />
    </clipPath>
    <clipPath
       id="c"
       clipPathUnits="userSpaceOnUse">
      <path
         d="m -488.313,-132.237 h 841.89 v 595.276 h -841.89 z"
         id="path8" />
    </clipPath>
    <clipPath
       id="d"
       clipPathUnits="userSpaceOnUse">
      <path
         d="m -519.714,-136.177 h 841.89 V 459.1 h -841.89 z"
         id="path11" />
    </clipPath>
    <clipPath
       id="e"
       clipPathUnits="userSpaceOnUse">
      <path
         d="m -521.325,-134.642 h 841.89 v 595.276 h -841.89 z"
         id="path14" />
    </clipPath>
    <clipPath
       id="b"
       clipPathUnits="userSpaceOnUse">
      <path
         d="m -480.445,-91.617 h 841.89 V 503.66 h -841.89 z"
         id="path17" />
    </clipPath>
    <clipPath
       id="g"
       clipPathUnits="userSpaceOnUse">
      <path
         d="M -500.02,-102.749 H 341.87 V 492.527 H -500.02 Z"
         id="path20" />
    </clipPath>
    <clipPath
       id="h"
       clipPathUnits="userSpaceOnUse">
      <path
         d="M -522.55,-115.224 H 319.34 V 480.052 H -522.55 Z"
         id="path23" />
    </clipPath>
    <clipPath
       id="i"
       clipPathUnits="userSpaceOnUse">
      <path
         d="m -561.373,-85.195 h 841.89 v 595.276 h -841.89 z"
         id="path26" />
    </clipPath>
    <clipPath
       id="j"
       clipPathUnits="userSpaceOnUse">
      <path
         d="m -562.786,-87.568 h 841.89 v 595.276 h -841.89 z"
         id="path29" />
    </clipPath>
    <clipPath
       id="k"
       clipPathUnits="userSpaceOnUse">
      <path
         d="M -537.03,-102.748 H 304.86 V 492.528 H -537.03 Z"
         id="path32" />
    </clipPath>
  </defs>
  <path
     fill="#00803d"
     d="M 27.411,115.826 H 53.663 V 44.318 H 27.41 A 17.647,17.647 0 0 0 9.76,61.965 v 36.211 a 17.65,17.65 0 0 0 17.65,17.65"
     clip-path="url(#b)"
     id="path39"
     transform="translate(-9.76,-30.146)" />
  <path
     fill="#87bd25"
     d="M 87.853,85.68 H 43.9 V 14.172 h 43.952 z"
     id="path55" />
  <path
     fill="#ffcc00"
     d="M 131.802,85.68 H 87.852 V 14.172 h 43.95 z"
     id="path57" />
  <path
     fill="#ef7d00"
     d="M 175.755,85.68 H 131.802 V 14.172 h 43.953 z"
     id="path59" />
  <path
     fill="#74ab7e"
     d="m 17.762,55.019 4.854,-12.702 4.666,12.702 z m 7.163,-20.97 H 20.648 L 7.43,65.919 h 6.2 l 2.304,-6.097 h 13.124 l 2.262,6.097 h 6.775 z"
     id="path61" />
  <path
     fill="#bdd684"
     d="m 70.609,91.26 v -9.006 h 3.027 c 5.625,0.045 7.452,1.708 7.452,4.341 0,3.28 -2.405,4.665 -7.068,4.665 z m 0,-13.441 v -8.823 h 1.827 c 4.855,0 6.825,1.432 6.825,4.297 0,2.632 -1.875,4.433 -5.817,4.48 z m 2.597,-13.627 h -8.752 v 31.872 h 9.855 c 9.28,0 13.078,-3.74 13.078,-9.469 0,-3.142 -1.733,-5.634 -5.339,-7.066 2.068,-1.618 3.51,-3.88 3.51,-6.792 0,-4.712 -3.318,-8.545 -12.352,-8.545"
     clip-path="url(#g)"
     id="path63"
     transform="translate(-9.76,-30.146)" />
  <path
     fill="#ffdf7d"
     d="m 120.327,63.73 c -8.556,0 -15.14,6.376 -15.14,16.353 0,10.027 6.057,16.447 15.237,16.447 5.912,0 10.142,-2.31 12.784,-6.7 l -4.615,-3.372 c -1.873,3.05 -4.468,4.76 -7.929,4.76 -5.865,0 -9.135,-4.067 -9.135,-11.181 0,-6.652 3.365,-10.992 8.557,-10.992 3.414,0 5.912,1.708 7.115,4.618 l 5.863,-2.171 c -1.922,-4.48 -5.43,-7.761 -12.737,-7.761"
     clip-path="url(#h)"
     id="path65"
     transform="translate(-9.76,-30.146)" />
  <path
     fill="#ffffff"
     d="m 206,129.998 c -16.566,0 -30.043,-12.466 -30.043,-27.788 V 57.936 c 0,-15.324 13.477,-27.79 30.043,-27.79 h 3.118 c 16.568,0 30.045,12.466 30.045,27.79 v 44.274 c 0,15.322 -13.477,27.788 -30.045,27.788 z"
     clip-path="url(#i)"
     id="path67"
     transform="translate(-9.76,-30.146)" />
  <path
     fill="#e63312"
     d="M 209.118,124.761 H 206 c -13.7,0 -24.806,-10.096 -24.806,-22.55 V 57.935 C 181.194,45.48 192.3,35.384 206,35.384 h 3.118 c 13.702,0 24.808,10.096 24.808,22.55 v 44.275 c 0,12.455 -11.106,22.551 -24.808,22.551"
     clip-path="url(#j)"
     id="path69"
     transform="translate(-9.76,-30.146)" />
  <path
     fill="#ffffff"
     d="M 184.736,70.703 V 28.207 h 27.653 v 8.684 h -16.875 v 7.45 h 11.64 v 8.747 h -11.64 v 8.93 h 17.243 v 8.685 z"
     id="path71" />
  <path
     fill="#f8b472"
     d="M 152.28,91.262 V 69.09 h 3.463 c 7.642,0 11.345,4.065 11.345,11.04 0,6.376 -3.992,11.133 -12.113,11.133 z m 3.512,-27.07 h -9.664 v 31.872 h 8.99 c 11.392,0 18.315,-6.788 18.315,-15.935 0,-9.976 -6.442,-15.937 -17.641,-15.937"
     clip-path="url(#k)"
     id="path73"
     transform="translate(-9.76,-30.146)" />
</svg>
