<?xml version="1.0" encoding="UTF-8" standalone="no"?>
<svg
   width="219.655"
   height="99.851997"
   version="1.1"
   id="svg230"
   sodipodi:docname="nutriscore-b.svg"
   inkscape:version="1.2.2 (732a01da63, 2022-12-09)"
   xmlns:inkscape="http://www.inkscape.org/namespaces/inkscape"
   xmlns:sodipodi="http://sodipodi.sourceforge.net/DTD/sodipodi-0.dtd"
   xmlns="http://www.w3.org/2000/svg"
   xmlns:svg="http://www.w3.org/2000/svg">
  <defs
     id="defs234" />
  <sodipodi:namedview
     id="namedview232"
     pagecolor="#ffffff"
     bordercolor="#000000"
     borderopacity="0.25"
     inkscape:showpageshadow="2"
     inkscape:pageopacity="0.0"
     inkscape:pagecheckerboard="0"
     inkscape:deskcolor="#d1d1d1"
     showgrid="false"
     inkscape:zoom="6.4166667"
     inkscape:cx="110.25974"
     inkscape:cy="34.987013"
     inkscape:window-width="1822"
     inkscape:window-height="1051"
     inkscape:window-x="-9"
     inkscape:window-y="-9"
     inkscape:window-maximized="1"
     inkscape:current-layer="svg230" />
  <path
     fill="#ffcc00"
     d="M 131.804,85.68 H 87.854 V 14.172 h 43.95 z"
     id="path194" />
  <path
     fill="#ef7d00"
     d="m 175.754,85.68 h -43.95 V 14.172 h 43.95 z"
     id="path196" />
  <path
     fill="#e63312"
     d="M 202.008,85.68 H 175.754 V 14.172 h 26.254 a 17.647,17.647 0 0 1 17.647,17.647 V 68.032 A 17.65,17.65 0 0 1 202.008,85.68"
     clip-path="url(#clipPath1717)"
     id="path198" />
  <path
     fill="#00803d"
     d="M 17.65,85.68 H 43.902 V 14.172 H 17.65 A 17.647,17.647 0 0 0 0,31.819 V 68.032 A 17.65,17.65 0 0 0 17.65,85.68"
     clip-path="url(#clipPath1729)"
     id="path200" />
  <path
     fill="#ffdf7d"
     d="m 115.139,33.584 c -8.556,0 -15.139,6.378 -15.139,16.353 0,10.027 6.055,16.447 15.236,16.447 5.914,0 10.142,-2.31 12.785,-6.7 l -4.612,-3.372 c -1.875,3.05 -4.473,4.76 -7.933,4.76 -5.863,0 -9.134,-4.067 -9.134,-11.181 0,-6.652 3.366,-10.99 8.556,-10.99 3.414,0 5.914,1.706 7.115,4.616 l 5.865,-2.17 c -1.924,-4.48 -5.433,-7.762 -12.74,-7.762"
     clip-path="url(#clipPath1735)"
     id="path202" />
  <path
     fill="#f8b472"
     d="M 148.041,61.119 V 38.944 h 3.463 c 7.642,0 11.342,4.065 11.342,11.04 0,6.376 -3.987,11.134 -12.11,11.134 z m 3.509,-27.07 h -9.661 V 65.92 h 8.99 c 11.391,0 18.314,-6.788 18.314,-15.934 0,-9.977 -6.444,-15.938 -17.64,-15.938"
     clip-path="url(#clipPath1741)"
     id="path204" />
  <path
     fill="#f28f66"
     d="M 207.818,34.046 H 187.582 V 65.92 h 20.43 v -4.801 h -14.278 v -9.38 h 10 v -4.803 h -10 v -8.084 h 14.084 z"
     id="path206" />
  <path
     fill="#74ab7e"
     d="m 12.626,55.019 4.854,-12.702 4.666,12.702 z m 7.163,-20.97 H 15.508 L 2.289,65.919 H 8.49 l 2.308,-6.097 h 13.124 l 2.26,6.097 h 6.774 z"
     id="path222" />
  <path
     fill="#ffffff"
     d="M 64.372,99.852 C 47.806,99.852 34.329,87.386 34.329,72.064 V 27.79 C 34.329,12.466 47.806,0 64.372,0 h 3.118 c 16.566,0 30.043,12.468 30.043,27.79 v 44.274 c 0,15.322 -13.477,27.788 -30.043,27.788 z"
     clip-path="url(#clipPath1779)"
     id="path224" />
  <path
     fill="#87bd25"
     d="M 67.49,94.615 H 64.372 C 50.668,94.615 39.566,84.519 39.566,72.062 V 27.79 C 39.566,15.335 50.67,5.237 64.37,5.237 h 3.12 c 13.7,0 24.804,10.098 24.804,22.553 v 44.274 c 0,12.455 -11.104,22.551 -24.804,22.551"
     clip-path="url(#clipPath1785)"
     id="path226" />
  <path
     fill="#ffffff"
     d="M 52.959,69.469 V 26.976 h 13.086 c 10.071,0 14.357,5.296 14.357,12.07 0,3.695 -1.796,6.835 -4.575,8.254 3.88,1.29 6.775,4.616 6.775,9.114 0,7.818 -4.921,13.055 -15.227,13.055 z m 10.13,-25.19 h 1.912 c 2.893,0 4.978,-1.17 4.978,-4.434 0,-3.263 -2.085,-4.188 -4.978,-4.188 h -1.912 z m 0,7.946 v 8.563 h 3.823 c 2.952,0 5.265,-1.174 5.265,-4.374 0,-3.143 -2.544,-4.189 -5.786,-4.189 z"
     id="path228" />
</svg>
