<?xml version="1.0" encoding="UTF-8" standalone="no"?>
<!-- Created with Inkscape (http://www.inkscape.org/) -->

<svg
   width="58.116524mm"
   height="26.419174mm"
   viewBox="0 0 58.116524 26.419174"
   version="1.1"
   id="svg540"
   inkscape:version="1.2.2 (732a01da63, 2022-12-09)"
   sodipodi:docname="nutriscore-d.svg"
   xmlns:inkscape="http://www.inkscape.org/namespaces/inkscape"
   xmlns:sodipodi="http://sodipodi.sourceforge.net/DTD/sodipodi-0.dtd"
   xmlns="http://www.w3.org/2000/svg"
   xmlns:svg="http://www.w3.org/2000/svg">
  <sodipodi:namedview
     id="namedview542"
     pagecolor="#ffffff"
     bordercolor="#000000"
     borderopacity="0.25"
     inkscape:showpageshadow="2"
     inkscape:pageopacity="0.0"
     inkscape:pagecheckerboard="0"
     inkscape:deskcolor="#d1d1d1"
     inkscape:document-units="mm"
     showgrid="false"
     inkscape:zoom="0.76969697"
     inkscape:cx="473.56299"
     inkscape:cy="482.65748"
     inkscape:window-width="1822"
     inkscape:window-height="1051"
     inkscape:window-x="-9"
     inkscape:window-y="-9"
     inkscape:window-maximized="1"
     inkscape:current-layer="layer1" />
  <defs
     id="defs537" />
  <g
     inkscape:label="Calque 1"
     inkscape:groupmode="layer"
     id="layer1"
     transform="translate(20.120761,-20.821663)">
    <path
       fill="#e63312"
       d="M 33.325865,43.491163 H 26.380024 V 24.571338 h 6.945841 a 4.669102,4.669102 0 0 1 4.669896,4.669102 v 9.581356 a 4.6698958,4.6698958 0 0 1 -4.669896,4.669367"
       clip-path="url(#clipPath1655)"
       id="path318"
       style="stroke-width:0.264583" />
    <path
       fill="#00803d"
       d="m -15.451394,43.491163 h 6.9458412 V 24.571338 h -6.9458412 a 4.669102,4.669102 0 0 0 -4.669367,4.669102 v 9.581356 a 4.669102,4.669102 0 0 0 4.669367,4.669367"
       clip-path="url(#clipPath1661)"
       id="path320"
       style="stroke-width:0.264583" />
    <path
       fill="#f28f66"
       d="m 35.916401,29.830196 h -5.354109 v 8.433859 h 5.405438 v -1.27053 h -3.777456 v -2.481527 h 2.645568 V 33.24094 h -2.645039 v -2.139156 h 3.725598 z"
       id="path322"
       style="stroke-width:0.264583" />
    <path
       fill="#87bd25"
       d="M 3.1234137,43.491163 H -8.5050237 V 24.571338 H 3.1234137 Z"
       id="path338"
       style="stroke-width:0.264583" />
    <path
       fill="#ffcc00"
       d="M 14.751057,43.491163 H 3.1226199 V 24.571338 H 14.751586 Z"
       id="path340"
       style="stroke-width:0.264583" />
    <path
       fill="#74ab7e"
       d="m -15.420967,35.379302 1.284552,-3.361266 1.233487,3.360737 z m 1.89521,-5.549106 h -1.132417 l -3.496997,8.4328 h 1.640681 l 0.610923,-1.613164 h 3.471598 l 0.597958,1.613164 h 1.793081 z"
       id="path342"
       style="stroke-width:0.264583" />
    <path
       fill="#bdd684"
       d="m -4.0216592,36.991938 v -2.383367 h 0.8016875 c 1.4877521,0.01244 1.9719396,0.451909 1.9719396,1.149086 0,0.867039 -0.6365875,1.234281 -1.8703396,1.234281 z m 0,-3.556794 v -2.334419 h 0.4836584 c 1.2842875,0 1.8057812,0.379678 1.8057812,1.136915 0,0.696383 -0.4963583,1.173427 -1.5385521,1.185333 z m 0.6873875,-3.605477 h -2.3151041 v 8.4328 h 2.6074687 c 2.45480415,0 3.45942706,-0.989542 3.45942706,-2.50481 0,-0.831321 -0.45825833,-1.491192 -1.41181665,-1.870075 0.54715832,-0.428096 0.92868749,-1.026584 0.92868749,-1.796521 0,-1.247246 -0.87788749,-2.261394 -3.2686625,-2.261394"
       clip-path="url(#clipPath1693)"
       id="path344"
       style="stroke-width:0.264583" />
    <path
       fill="#ffdf7d"
       d="m 7.9594678,29.70743 c -2.2635104,0 -4.0065854,1.687512 -4.0065854,4.32726 0,2.652448 1.6028458,4.351073 4.0317208,4.351073 1.5647458,0 2.6841978,-0.611188 3.3834918,-1.772708 L 10.146778,35.72088 c -0.4963582,0.806979 -1.1829519,1.259416 -2.0984102,1.259416 -1.5515167,0 -2.416175,-1.07606 -2.416175,-2.958041 0,-1.75948 0.8903229,-2.908565 2.263775,-2.908565 0.9024937,0 1.5642166,0.452438 1.8822458,1.221846 l 1.5507224,-0.573881 c -0.508,-1.185334 -1.4361578,-2.053961 -3.3694682,-2.053961"
       clip-path="url(#clipPath1699)"
       id="path346"
       style="stroke-width:0.264583" />
    <path
       fill="#ffffff"
       d="m 20.122628,47.240838 c -4.383087,0 -7.949406,-3.298296 -7.949406,-7.352242 V 28.174434 c 0,-4.054475 3.566583,-7.352771 7.949406,-7.352771 h 0.824971 c 4.383352,0 7.948877,3.298825 7.948877,7.352771 v 11.714162 c 0,4.053946 -3.565525,7.352242 -7.948877,7.352242 z"
       clip-path="url(#clipPath1705)"
       id="path348"
       style="stroke-width:0.264583" />
    <path
       fill="#ef7d00"
       d="m 20.947863,45.855215 h -0.825235 c -3.62585,0 -6.563254,-2.671233 -6.563254,-5.966354 V 28.174169 c 0,-3.295385 2.938198,-5.966618 6.562725,-5.966618 h 0.8255 c 3.624791,0 6.562989,2.671233 6.562989,5.967147 v 11.713104 c 0,3.295386 -2.938198,5.967148 -6.562725,5.967148"
       clip-path="url(#clipPath1711)"
       id="path350"
       style="stroke-width:0.264583" />
    <path
       fill="#ffffff"
       d="M 16.108634,39.528498 V 28.284765 h 3.845454 c 3.650192,0 5.865813,2.069042 5.865813,5.621602 0,3.161771 -2.3622,5.622396 -6.142567,5.622396 z m 3.519488,-2.297641 c 2.329656,0 3.242998,-1.547284 3.242998,-3.32449 0,-2.020358 -0.815182,-3.275012 -2.932907,-3.275012 h -0.9779 v 6.599502 z"
       id="path352"
       style="stroke-width:0.264583" />
  </g>
</svg>
