<?xml version="1.0" encoding="UTF-8" standalone="no"?>
<svg
   width="229.41"
   height="99.851997"
   version="1.1"
   id="svg188"
   sodipodi:docname="nutriscore-a.svg"
   inkscape:version="1.2.2 (732a01da63, 2022-12-09)"
   xmlns:inkscape="http://www.inkscape.org/namespaces/inkscape"
   xmlns:sodipodi="http://sodipodi.sourceforge.net/DTD/sodipodi-0.dtd"
   xmlns="http://www.w3.org/2000/svg"
   xmlns:svg="http://www.w3.org/2000/svg">
  <sodipodi:namedview
     id="namedview190"
     pagecolor="#ffffff"
     bordercolor="#000000"
     borderopacity="0.25"
     inkscape:showpageshadow="2"
     inkscape:pageopacity="0.0"
     inkscape:pagecheckerboard="0"
     inkscape:deskcolor="#d1d1d1"
     showgrid="false"
     inkscape:zoom="6.4166667"
     inkscape:cx="120.07792"
     inkscape:cy="34.987013"
     inkscape:window-width="1822"
     inkscape:window-height="1051"
     inkscape:window-x="-9"
     inkscape:window-y="-9"
     inkscape:window-maximized="1"
     inkscape:current-layer="svg188" />
  <defs
     id="defs148">
    <clipPath
       id="f"
       clipPathUnits="userSpaceOnUse">
      <path
         d="m -471.214,-278.353 h 841.89 v 595.276 h -841.89 z"
         id="path115" />
    </clipPath>
    <clipPath
       id="a"
       clipPathUnits="userSpaceOnUse">
      <path
         d="m -503.056,-291.81 h 841.89 v 595.277 h -841.89 z"
         id="path118" />
    </clipPath>
    <clipPath
       id="c"
       clipPathUnits="userSpaceOnUse">
      <path
         d="m -427.382,-279.942 h 841.89 v 595.276 h -841.89 z"
         id="path121" />
    </clipPath>
    <clipPath
       id="d"
       clipPathUnits="userSpaceOnUse">
      <path
         d="m -458.785,-283.881 h 841.89 v 595.276 h -841.89 z"
         id="path124" />
    </clipPath>
    <clipPath
       id="e"
       clipPathUnits="userSpaceOnUse">
      <path
         d="m -460.394,-282.347 h 841.89 v 595.276 h -841.89 z"
         id="path127" />
    </clipPath>
    <clipPath
       id="b"
       clipPathUnits="userSpaceOnUse">
      <path
         d="m -503.055,-239.322 h 841.89 v 595.276 h -841.89 z"
         id="path130" />
    </clipPath>
    <clipPath
       id="g"
       clipPathUnits="userSpaceOnUse">
      <path
         d="m -441.091,-250.452 h 841.89 v 595.276 h -841.89 z"
         id="path133" />
    </clipPath>
    <clipPath
       id="h"
       clipPathUnits="userSpaceOnUse">
      <path
         d="M -461.62,-262.929 H 380.27 V 332.347 H -461.62 Z"
         id="path136" />
    </clipPath>
    <clipPath
       id="i"
       clipPathUnits="userSpaceOnUse">
      <path
         d="m -478.601,-250.452 h 841.89 v 595.276 h -841.89 z"
         id="path139" />
    </clipPath>
    <clipPath
       id="j"
       clipPathUnits="userSpaceOnUse">
      <path
         d="m -420.708,-232.9 h 841.89 v 595.276 h -841.89 z"
         id="path142" />
    </clipPath>
    <clipPath
       id="k"
       clipPathUnits="userSpaceOnUse">
      <path
         d="m -422.121,-235.273 h 841.89 v 595.276 h -841.89 z"
         id="path145" />
    </clipPath>
  </defs>
  <path
     fill="#e63312"
     d="M 211.768,115.826 H 185.516 V 44.318 h 26.252 a 17.647,17.647 0 0 1 17.647,17.647 v 36.211 a 17.647,17.647 0 0 1 -17.647,17.65"
     clip-path="url(#b)"
     id="path152"
     transform="translate(-0.005,-30.146)" />
  <path
     fill="#f28f66"
     d="M 217.577,34.046 H 197.341 V 65.92 h 20.428 v -4.801 h -14.274 v -9.38 h 9.999 v -4.803 h -10 v -8.084 h 14.084 z"
     id="path154" />
  <path
     fill="#87bd25"
     d="M 97.609,85.68 H 53.659 V 14.172 h 43.95 z"
     id="path170" />
  <path
     fill="#ffcc00"
     d="M 141.561,85.68 H 97.609 V 14.172 h 43.952 z"
     id="path172" />
  <path
     fill="#ef7d00"
     d="m 185.511,85.68 h -43.95 V 14.172 h 43.95 z"
     id="path174" />
  <path
     fill="#bdd684"
     d="m 75.028,91.265 v -9.008 h 3.028 c 5.622,0.044 7.452,1.708 7.452,4.343 0,3.277 -2.406,4.665 -7.068,4.665 z m 0,-13.444 v -8.823 h 1.827 c 4.855,0 6.823,1.433 6.823,4.297 0,2.633 -1.873,4.433 -5.814,4.48 z m 2.597,-13.627 h -8.752 v 31.873 h 9.856 c 9.277,0 13.075,-3.741 13.075,-9.467 0,-3.145 -1.73,-5.637 -5.336,-7.069 2.068,-1.617 3.509,-3.88 3.509,-6.79 0,-4.714 -3.317,-8.547 -12.352,-8.547"
     clip-path="url(#g)"
     id="path176"
     transform="translate(-0.005,-30.146)" />
  <path
     fill="#ffdf7d"
     d="m 120.33,63.73 c -8.555,0 -15.142,6.376 -15.142,16.353 0,10.027 6.06,16.447 15.237,16.447 5.915,0 10.145,-2.31 12.786,-6.7 l -4.614,-3.372 c -1.874,3.05 -4.469,4.76 -7.931,4.76 -5.866,0 -9.134,-4.067 -9.134,-11.181 0,-6.652 3.368,-10.992 8.558,-10.992 3.414,0 5.914,1.708 7.115,4.619 l 5.863,-2.172 c -1.922,-4.48 -5.43,-7.761 -12.737,-7.761"
     clip-path="url(#h)"
     id="path178"
     transform="translate(-0.005,-30.146)" />
  <path
     fill="#f8b472"
     d="M 157.804,91.265 V 69.09 h 3.462 c 7.642,0 11.345,4.065 11.345,11.04 0,6.376 -3.992,11.134 -12.113,11.134 z m 3.51,-27.07 h -9.663 v 31.872 h 8.99 c 11.392,0 18.314,-6.788 18.314,-15.936 0,-9.976 -6.441,-15.937 -17.64,-15.937"
     clip-path="url(#i)"
     id="path180"
     transform="translate(-0.005,-30.146)" />
  <path
     fill="#ffffff"
     d="M 30.048,129.998 C 13.48,129.998 0.005,117.532 0.005,102.21 V 57.936 c 0,-15.324 13.476,-27.79 30.043,-27.79 h 3.118 c 16.566,0 30.043,12.466 30.043,27.79 v 44.274 c 0,15.322 -13.477,27.788 -30.043,27.788 z"
     clip-path="url(#j)"
     id="path182"
     transform="translate(-0.005,-30.146)" />
  <path
     fill="#00803d"
     d="m 33.166,124.761 h -3.118 c -13.702,0 -24.809,-10.096 -24.809,-22.55 V 57.935 c 0,-12.455 11.107,-22.551 24.809,-22.551 h 3.118 c 13.7,0 24.806,10.096 24.806,22.55 v 44.275 c 0,12.455 -11.107,22.551 -24.806,22.551"
     clip-path="url(#k)"
     id="path184"
     transform="translate(-0.005,-30.146)" />
  <path
     fill="#ffffff"
     d="M 11.868,69.467 27.615,26.973 h 8.684 l 15.63,42.494 H 40.815 l -2.14,-6.837 h -14.36 l -2.256,6.837 z M 27.209,53.949 h 8.686 L 31.667,40.521 Z"
     id="path186" />
</svg>
